<?xml version="1.0" standalone="no"?><!DOCTYPE svg PUBLIC "-//W3C//DTD SVG 1.1//EN" "http://www.w3.org/Graphics/SVG/1.1/DTD/svg11.dtd"><svg t="1672633920523" class="icon" viewBox="0 0 1026 1024" version="1.1" xmlns="http://www.w3.org/2000/svg" p-id="3827" xmlns:xlink="http://www.w3.org/1999/xlink" width="128.25" height="128"><path d="M511.602721 1023.001027a511.474051 511.474051 0 1 1 360.629164-148.84694 509.476105 509.476105 0 0 1-360.629164 149.845913z m0-941.032335c-109.887003 0-220.772979 41.956856-304.686691 125.870567-167.827423 168.826396-167.827423 441.545958 0 609.373381s440.546985 167.827423 609.373381 0c167.827423-167.827423 167.827423-440.546985 0-609.373381-83.913711-82.914739-194.799687-124.871594-304.68669-124.871595z m332.657927 763.215185z" fill="" p-id="3828"></path><path d="M780.326392 552.484859H241.880077a39.95891 39.95891 0 0 1 0-79.91782h538.446315a39.95891 39.95891 0 0 1 0 79.91782z" fill="" p-id="3829"></path><path d="M511.602721 822.207503a39.95891 39.95891 0 0 1-39.958911-39.95891V243.802278a39.95891 39.95891 0 1 1 79.917821 0v538.446315a39.95891 39.95891 0 0 1-39.95891 39.95891z" fill="" p-id="3830"></path></svg>