<?xml version="1.0" standalone="no"?><!DOCTYPE svg PUBLIC "-//W3C//DTD SVG 1.1//EN" "http://www.w3.org/Graphics/SVG/1.1/DTD/svg11.dtd"><svg t="1677028502059" class="icon" viewBox="0 0 1024 1024" version="1.1" xmlns="http://www.w3.org/2000/svg" p-id="3409" xmlns:xlink="http://www.w3.org/1999/xlink" width="128" height="128"><path d="M746.666667 256c-59.733333 0-106.666667 46.933333-106.666667 106.666667s46.933333 106.666667 106.666667 106.666666 106.666667-46.933333 106.666666-106.666666-46.933333-106.666667-106.666666-106.666667z m0 170.666667c-36.266667 0-64-27.733333-64-64s27.733333-64 64-64 64 27.733333 64 64-27.733333 64-64 64z" fill="#000000" p-id="3410"></path><path d="M938.666667 896H85.333333c-23.466667 0-42.666667-19.2-42.666666-42.666667V170.666667c0-23.466667 19.2-42.666667 42.666666-42.666667h853.333334c23.466667 0 42.666667 19.2 42.666666 42.666667v682.666666c0 23.466667-19.2 42.666667-42.666666 42.666667zM85.333333 170.666667v682.666666h853.333334V170.666667H85.333333z" fill="#000000" p-id="3411"></path><path d="M620.8 853.333333l115.2-194.133333L853.333333 853.333333h49.066667l-132.266667-221.866666c-6.4-12.8-19.2-19.2-34.133333-19.2-14.933333 0-27.733333 6.4-34.133333 19.2L571.733333 853.333333h49.066667z" fill="#000000" p-id="3412"></path><path d="M151.466667 853.333333l268.8-450.133333L640 772.266667l36.266667-21.333334-221.866667-373.333333c-6.4-12.8-19.2-19.2-34.133333-19.2-14.933333 0-27.733333 6.4-34.133334 19.2L102.4 853.333333h49.066667z" fill="#000000" p-id="3413"></path></svg>