<?xml version="1.0" standalone="no"?><!DOCTYPE svg PUBLIC "-//W3C//DTD SVG 1.1//EN" "http://www.w3.org/Graphics/SVG/1.1/DTD/svg11.dtd"><svg t="1673603460192" class="icon" viewBox="0 0 1024 1024" version="1.1" xmlns="http://www.w3.org/2000/svg" p-id="5348" xmlns:xlink="http://www.w3.org/1999/xlink" width="128" height="128"><path d="M789.3 907.3h-40.9 16.2c13.8-0.8 24.7-12.2 24.7-26.2v26.2zM209.2 907.1v-40.9 16.2c0.8 13.8 12.2 24.7 26.2 24.7h-26.2zM43.2 171.1c0 22.6 18.3 41 41 41h838.1c22.6 0 41-18.3 41-41 0-22.6-18.3-41-41-41H84.2c-22.6 0.1-41 18.4-41 41z" fill="#000000" p-id="5349"></path><path d="M532.7 40.7h-51.4c-22.6 0-41 18.3-41 41v89.5c0 22.6 18.3 41 41 41h51.4c22.6 0 41-18.3 41-41V81.6c0-22.6-18.4-40.9-41-40.9zM391.8 291.9c-22.6 0-41 18.3-41 41V791c0 22.6 18.3 41 41 41 22.6 0 41-18.3 41-41V332.8c-0.1-22.6-18.4-40.9-41-40.9zM607 291.9c-22.6 0-41 18.3-41 41V791c0 22.6 18.3 41 41 41 22.6 0 41-18.3 41-41V332.8c-0.1-22.6-18.4-40.9-41-40.9z" fill="#000000" p-id="5350"></path><path d="M187.7 988.6H809c34.6-3.2 61.7-32.3 61.7-67.8v-0.5h0.1V332.8c0-22.6-18.3-41-41-41-22.6 0-41 18.3-41 41v573.9h-579V170.1c0-22.6-18.3-41-41-41s-41 18.3-41 41V925c2.1 33 27.5 59.7 59.9 63.6z" fill="#000000" p-id="5351"></path></svg>