<?xml version="1.0" standalone="no"?><!DOCTYPE svg PUBLIC "-//W3C//DTD SVG 1.1//EN" "http://www.w3.org/Graphics/SVG/1.1/DTD/svg11.dtd"><svg t="1672401968396" class="icon" viewBox="0 0 1024 1024" version="1.1" xmlns="http://www.w3.org/2000/svg" p-id="20742" xmlns:xlink="http://www.w3.org/1999/xlink" width="128" height="128"><path d="M890.41032533 75.09333333h-573.472768c-32.555008 0-59.04247467 26.279936-59.04247466 58.5728V255.91808H134.68194133c-32.56046933 0-59.04247467 26.279936-59.04247466 58.57826133v575.832064c0 32.29832533 26.48200533 58.57826133 59.04247466 58.57826134H708.149248c32.54954667 0 59.04247467-26.279936 59.04247467-58.57826134V768.07645867h123.21860266c32.555008 0 59.04247467-26.27447467 59.04247467-58.57826134v-575.832064c0-32.292864-26.48746667-58.5728-59.04247467-58.5728z m-188.82013866 808.72516267H141.24100267V321.00078933h560.349184V883.818496zM883.851264 702.99374933H767.19172267V314.49634133c0-32.29832533-26.492928-58.57826133-59.04247467-58.57826133H323.50208V140.17604267H883.851264V702.99374933z" fill="#000000" p-id="20743"></path></svg>