<?xml version="1.0" standalone="no"?><!DOCTYPE svg PUBLIC "-//W3C//DTD SVG 1.1//EN" "http://www.w3.org/Graphics/SVG/1.1/DTD/svg11.dtd"><svg t="1672454688412" class="icon" viewBox="0 0 1024 1024" version="1.1" xmlns="http://www.w3.org/2000/svg" p-id="4232" xmlns:xlink="http://www.w3.org/1999/xlink" width="128" height="128"><path d="M184 789.088L389.309 583.78a8 8 0 0 1 11.313 0l39.598 39.598a8 8 0 0 1 0 11.313L234.912 840H384c8.837 0 16 7.163 16 16v48a8 8 0 0 1-8 8H144c-17.673 0-32-14.327-32-32V632a8 8 0 0 1 8-8h48c8.837 0 16 7.163 16 16v149.088z m656-554.422L634.569 440.098a8 8 0 0 1-11.314 0L583.657 400.5a8 8 0 0 1 0-11.314L788.843 184H640c-8.837 0-16-7.163-16-16v-48a8 8 0 0 1 8-8h248c17.673 0 32 14.327 32 32v248a8 8 0 0 1-8 8h-48c-8.837 0-16-7.163-16-16V234.666z" fill="#000000" p-id="4233"></path></svg>