<?xml version="1.0" standalone="no"?><!DOCTYPE svg PUBLIC "-//W3C//DTD SVG 1.1//EN" "http://www.w3.org/Graphics/SVG/1.1/DTD/svg11.dtd"><svg class="icon" width="128px" height="128.00px" viewBox="0 0 1024 1024" version="1.1" xmlns="http://www.w3.org/2000/svg"><path fill="#000000" d="M512 0C229.376 0 0 229.376 0 512s229.376 512 512 512 512-229.376 512-512S794.624 0 512 0z m0 955.904c-244.736 0-443.904-199.168-443.904-443.904 0-244.736 199.168-443.904 443.904-443.904s443.904 199.168 443.904 443.904c0 244.736-199.168 443.904-443.904 443.904zM461.824 416.256v191.488a34.304 34.304 0 0 1-68.608 0V416.256c0-18.944 15.36-34.304 34.304-34.304 18.944 0.512 34.304 15.36 34.304 34.304z m168.96 0v191.488a34.304 34.304 0 0 1-68.608 0V416.256c0-18.944 15.36-34.304 34.304-34.304 18.944 0.512 34.304 15.36 34.304 34.304z" /></svg>