<?xml version="1.0" standalone="no"?><!DOCTYPE svg PUBLIC "-//W3C//DTD SVG 1.1//EN" "http://www.w3.org/Graphics/SVG/1.1/DTD/svg11.dtd"><svg class="icon" width="128px" height="128.00px" viewBox="0 0 1024 1024" version="1.1" xmlns="http://www.w3.org/2000/svg"><path fill="#000000" d="M424.267168 405.738975l154.060587 106.253546-154.060587 106.253547v-212.507093m-28.221394-53.761755v320.002381l231.979855-159.98708-231.979855-160.015301z"  /><path fill="#000000" d="M512.035702 28.221394a483.771128 483.771128 0 0 1 342.071511 825.842638A483.771128 483.771128 0 1 1 169.964191 169.92101 480.525668 480.525668 0 0 1 512.035702 28.221394m0-28.221394a511.992521 511.992521 0 1 0 511.9643 511.992521A511.9643 511.9643 0 0 0 512.035702 0z"  /><path fill="#000000" d="M588.035915 351.97722h39.989714v320.002381h-39.989714z"  /></svg>