<?xml version="1.0" standalone="no"?><!DOCTYPE svg PUBLIC "-//W3C//DTD SVG 1.1//EN" "http://www.w3.org/Graphics/SVG/1.1/DTD/svg11.dtd"><svg t="1676205951285" class="icon" viewBox="0 0 1024 1024" version="1.1" xmlns="http://www.w3.org/2000/svg" p-id="7256" xmlns:xlink="http://www.w3.org/1999/xlink" width="128" height="128"><path d="M283.927273 624.872727l-34.443637-0.232727c-9.774545 0-17.687273-8.145455-17.454545-17.92l1.861818-220.625455c0-9.774545 8.145455-17.687273 17.92-17.454545l34.443636 0.232727c9.774545 0 17.687273 8.145455 17.454546 17.92l-1.861818 220.625455c-0.232727 9.541818-8.145455 17.454545-17.92 17.454545zM400.290909 624.872727l-34.443636-0.232727c-9.774545 0-17.687273-8.145455-17.454546-17.92l1.861818-220.625455c0-9.774545 8.145455-17.687273 17.92-17.454545l34.443637 0.232727c9.774545 0 17.687273 8.145455 17.454545 17.92l-1.861818 220.625455c-0.232727 9.541818-8.145455 17.454545-17.92 17.454545z" fill="#000000" p-id="7257"></path><path d="M166.632727 875.287273c-9.774545 0-19.549091-2.56-28.16-7.912728-13.730909-8.610909-22.109091-23.04-22.109091-38.632727V164.538182c0-15.592727 8.378182-30.021818 22.109091-38.632727 15.592727-9.541818 35.607273-10.472727 52.130909-2.327273l333.730909 165.934545c11.403636 5.818182 16.290909 19.781818 10.472728 31.185455s-19.781818 16.290909-31.185455 10.472727L169.890909 165.236364c-3.490909-1.629091-6.749091 0-7.214545 0.698181L162.909091 828.741818c0.232727-0.465455 1.396364 0 3.258182 0 1.163636 0 2.327273-0.232727 3.490909-0.698182L835.490909 496.872727l-224.116364-111.709091c-11.403636-5.818182-16.290909-19.781818-10.472727-31.185454s19.781818-16.290909 31.185455-10.472727l225.745454 112.174545c16.290909 8.145455 26.298182 23.970909 26.298182 40.96 0 17.221818-10.24 32.814545-26.298182 40.96L190.603636 869.701818c-7.68 3.723636-15.825455 5.585455-23.970909 5.585455zM838.283636 498.036364z" fill="#000000" p-id="7258"></path></svg>