<?xml version="1.0" standalone="no"?><!DOCTYPE svg PUBLIC "-//W3C//DTD SVG 1.1//EN" "http://www.w3.org/Graphics/SVG/1.1/DTD/svg11.dtd"><svg t="1673606393415" class="icon" viewBox="0 0 1024 1024" version="1.1" xmlns="http://www.w3.org/2000/svg" p-id="7272" xmlns:xlink="http://www.w3.org/1999/xlink" width="128" height="128"><path d="M416 85.333333h170.581333a32 32 0 0 1 4.352 63.701334l-4.352 0.298666H533.333333v725.333334h53.12a32 32 0 0 1 31.701334 27.648l0.298666 4.352a32 32 0 0 1-27.648 31.701333l-4.352 0.298667H416a32 32 0 0 1-4.352-63.701334l4.352-0.298666H469.333333v-725.333334H416a32 32 0 0 1-31.701333-27.648L384 117.333333a32 32 0 0 1 27.648-31.701333L416 85.333333h170.581333H416z m362.496 127.872a138.794667 138.794667 0 0 1 138.666667 138.666667l0.170666 320.170667a138.624 138.624 0 0 1-130.730666 138.496l-7.936 0.213333h-202.453334v-64h204.928A74.624 74.624 0 0 0 853.333333 672.042667l-0.128-320.213334a74.794667 74.794667 0 0 0-74.752-74.666666h-202.24v-64h202.24z m-351.829333 0v64H224a74.666667 74.666667 0 0 0-74.666667 74.666667v320.170667c0 41.258667 33.450667 74.666667 74.666667 74.666666h202.453333v64H224A138.666667 138.666667 0 0 1 85.333333 672.042667V351.872a138.666667 138.666667 0 0 1 138.666667-138.666667H426.666667z" fill="#000000" p-id="7273"></path></svg>